<svg xmlns="http://www.w3.org/2000/svg" viewBox="0 0 105.84 105.84">
  <defs>
    <style>
      .cls-1 {
        fill: none;
        stroke: #000;
        stroke-miterlimit: 10;
        stroke-width: 4px;
      }
    </style>
  </defs>
  <g>
    <path d="M64.14,51.43c-4.51.29-7.7,0-11.65.77C38.4,54.78,25.05,60.62,23.36,72.3,22.8,76.41,24.58,80,28.16,80c5.82,0,9.11-6.7,11.65-15.12.56-1.82.65-3.73,1.22-5.74,1.12-3.93,6.1-2.39,5.16,1-.65,2.2-1.41,3.93-2,5.94-3.38,11.58-7.8,18.47-16.53,18.47-6.77,0-9.68-6.41-8.93-12.54,1.69-13.21,14.94-21.15,33-24.12,3.66-.57,7.89-1.15,11.74-1.44C67.8,46.17,67.33,51.24,64.14,51.43ZM47.88,15.54c4.42,0,7.62,2.77,7.62,7.65,0,4.41-2,8.62-3,12.64l-.75,2.77c-.47,1.92-.66,3.74-1.22,5.84-1.13,3.83-6.2,2.3-5.27-1.14.66-2.21,1.41-3.93,2-5.94l.84-2.77c1.22-4.41,2.45-8.43,2.45-11.68A2.65,2.65,0,0,0,47.88,20c-5.16,0-7.61,5.83-9.77,9.86-2,3.63-5.82,1-4.13-2.21C36.52,22.72,41.31,15.54,47.88,15.54ZM74.1,28.46c.47-1.82.66-3.73,1.22-5.74,1.13-3.93,6.11-2.3,5.17,1.05-.57,2.2-1.41,3.92-2,5.93l-10,36.66c-1.22,4.41-2.44,8-2.44,11.2,0,2.2,1,3.35,2.63,3.35,3.48,0,7.8-3,13-9.47,2.63-3.35,5.54-.2,3.66,2.29-5.82,8-11.65,11.68-16.63,11.68-4.51,0-7.7-2.78-7.7-7.66,0-4.3,2-8.52,3.1-12.63Z"/>
    <circle id="Circle" class="cls-1" cx="52.92" cy="52.92" r="50.92"/>
  </g>
</svg>
